<svg width="24" height="30" viewBox="0 0 24 30" fill="none" xmlns="http://www.w3.org/2000/svg">
<path d="M19.799 15.4897C19.7659 11.8088 22.8129 10.0181 22.9522 9.93468C21.2266 7.41871 18.5518 7.07495 17.6119 7.04754C15.3655 6.81113 13.1864 8.39175 12.0421 8.39175C10.8749 8.39175 9.11266 7.07038 7.2134 7.10921C4.76938 7.1469 2.48296 8.56192 1.22897 10.7593C-1.35895 15.2396 0.571143 21.8236 3.05057 25.4451C4.29085 27.2187 5.74013 29.1991 7.63711 29.1294C9.49296 29.0529 10.1862 27.9462 12.4258 27.9462C14.6448 27.9462 15.2958 29.1294 17.2305 29.0848C19.2222 29.0529 20.4762 27.3032 21.6731 25.5136C23.1064 23.4807 23.682 21.4787 23.7048 21.3759C23.658 21.3599 19.8367 19.9015 19.799 15.4897Z" fill="white"/>
<path d="M16.1443 4.66991C17.1425 3.42163 17.8254 1.72338 17.6358 0C16.1911 0.0639557 14.3844 0.999308 13.344 2.22018C12.4234 3.296 11.6012 5.05935 11.8136 6.71763C13.4365 6.83869 15.1027 5.89877 16.1443 4.66991Z" fill="white"/>
</svg>
