<svg width="35" height="35" viewBox="0 0 35 35" fill="none" xmlns="http://www.w3.org/2000/svg">
<path d="M15.9563 0C8.67947 0.00708993 4.91444 0.137279 2.52586 2.52586C0.137279 4.91444 0.00708993 8.67947 0 15.9563H8.47604C7.8706 15.2001 7.41823 14.308 7.17154 13.3213C6.24304 9.60722 9.60722 6.24304 13.3213 7.17154C14.308 7.41823 15.2001 7.8706 15.9563 8.47604V0Z" fill="white"/>
<path d="M0 18.543C0.00708993 25.8197 0.137279 29.5846 2.52586 31.9733C4.91444 34.3618 8.67947 34.492 15.9563 34.4991V20.9125C14.6113 23.5989 11.8335 25.4431 8.62481 25.4431C7.91028 25.4431 7.33102 24.8639 7.33102 24.1494C7.33102 23.4348 7.91028 22.8556 8.62481 22.8556C11.2758 22.8556 13.4971 21.0155 14.0812 18.543H0Z" fill="white"/>
<path d="M18.5439 34.4991C25.8206 34.492 29.5855 34.3618 31.9742 31.9733C34.3627 29.5846 34.493 25.8197 34.5 18.543H20.4188C21.0029 21.0155 23.2243 22.8556 25.8753 22.8556C26.5898 22.8556 27.1691 23.4348 27.1691 24.1494C27.1691 24.8639 26.5898 25.4431 25.8753 25.4431C22.6666 25.4431 19.8887 23.5989 18.5439 20.9125V34.4991Z" fill="white"/>
<path d="M34.5 15.9563C34.493 8.67947 34.3627 4.91444 31.9742 2.52586C29.5855 0.137279 25.8206 0.00708993 18.5439 0V8.47604C19.3001 7.8706 20.1922 7.41823 21.1787 7.17154C24.8929 6.24304 28.2571 9.60722 27.3285 13.3213C27.0818 14.308 26.6295 15.2001 26.024 15.9563H34.5Z" fill="white"/>
<path d="M12.6937 9.68091C14.6111 10.1603 15.9563 11.8831 15.9563 13.8594V15.9554H13.8604C11.884 15.9554 10.1612 14.6102 9.68185 12.6927C9.22711 10.8738 10.8747 9.22617 12.6937 9.68091Z" fill="white"/>
<path d="M18.5439 13.8594V15.9554H20.6396C22.616 15.9554 24.3388 14.6102 24.8182 12.6927C25.2729 10.8738 23.6253 9.22617 21.8065 9.68091C19.8889 10.1603 18.5439 11.8831 18.5439 13.8594Z" fill="white"/>
</svg>
