<svg width="85" height="85" viewBox="0 0 85 85" fill="none" xmlns="http://www.w3.org/2000/svg">
<rect x="1.25" y="1.25" width="82.5" height="82.5" rx="41.25" fill="#2A2A2A"/>
<rect x="1.25" y="1.25" width="82.5" height="82.5" rx="41.25" stroke="white" stroke-width="2.5"/>
<path d="M43.5345 35.9026C37.9621 35.9026 32.4426 35.9026 26.9232 35.9026C25.6476 35.9026 25.0689 35.2758 25.2293 34.0036C25.3955 32.6854 25.798 31.4659 26.6399 30.3869C27.6676 29.0699 28.9682 28.2404 30.5772 27.8597C31.4968 27.6422 32.4303 27.7818 33.357 27.7616C33.6906 27.7543 33.8369 27.6844 33.8026 27.3253C33.7725 27.0108 33.7959 26.6911 33.7965 26.3737C33.7978 25.5845 34.3837 25 35.1727 25C35.9603 25.0001 36.5326 25.5797 36.551 26.3777C36.561 26.8149 36.3633 27.3873 36.6252 27.6537C36.9122 27.9456 37.493 27.7463 37.9443 27.7476C40.9068 27.7564 43.8694 27.7437 46.8318 27.7618C47.2454 27.7643 47.4033 27.6599 47.351 27.2401C47.3186 26.9796 47.3449 26.7118 47.345 26.4473C47.3454 25.5964 47.8989 25.0056 48.7006 25C49.536 24.9942 50.0832 25.5794 50.102 26.4627C50.1109 26.8789 49.9066 27.4444 50.1932 27.6704C50.4585 27.8796 51.0007 27.7647 51.4191 27.7471C52.5102 27.7012 53.5684 27.8048 54.5729 28.2772C56.6077 29.2342 57.9648 30.7506 58.4559 32.9749C58.5963 33.6106 58.8116 34.2466 58.5811 34.9154C58.3428 35.6071 57.9616 35.902 57.2361 35.9021C52.6866 35.903 48.137 35.9026 43.5345 35.9026Z" fill="white"/>
<path d="M26.6328 38.5352C36.8605 38.5622 47.0887 38.5598 57.3164 38.5361C58.2231 38.534 58.8968 39.1442 58.8896 40.126C58.8676 43.1588 58.9221 46.1927 58.8652 49.2246C58.8354 50.815 58.7267 52.4067 58.6602 53.998C58.5876 55.7309 57.9727 57.2862 56.7939 58.5566C55.8093 59.6178 54.5729 60.3273 53.124 60.5586C51.9682 60.7431 50.7912 60.719 49.625 60.7959C45.8311 61.046 42.0339 61.0166 38.2383 60.9746C36.4189 60.9545 34.5964 60.8627 32.7783 60.7637C31.4553 60.6916 30.1061 60.6213 28.9082 59.9287C26.8112 58.7162 25.5373 56.9621 25.3232 54.498C25.2128 53.2262 25.1074 51.9553 25.1152 50.626C24.8913 47.1091 25.076 43.6394 25.002 40.1729C24.9814 39.2077 25.5905 38.5325 26.6328 38.5352ZM42.0205 49.4619C41.0872 49.3552 40.0875 50.276 39.9395 51.3789C39.8203 52.2668 40.7861 53.3249 41.8516 53.4736C42.694 53.591 43.7202 52.7118 43.8828 51.7148C44.0292 50.5647 43.2061 49.5975 42.0205 49.4619ZM48.7959 49.4619C47.8627 49.3554 46.8629 50.2761 46.7148 51.3789C46.5957 52.2669 47.5623 53.3252 48.6279 53.4736C49.4704 53.591 50.4956 52.7118 50.6582 51.7148C50.8046 50.5646 49.9816 49.5974 48.7959 49.4619ZM37.166 51.4131C36.9915 50.008 35.9045 49.2558 34.626 49.5723C33.833 49.7687 33.1261 50.7138 33.1621 51.4951C33.2077 52.4784 33.8621 53.175 34.9932 53.4434C35.6207 53.5922 36.58 53.0082 36.9775 52.1963C37.0486 51.9069 37.1951 51.6489 37.166 51.4131ZM50.3604 43.6201C49.9421 42.8378 48.7979 42.4539 47.8281 42.9121C47.1299 43.2422 46.5458 44.1876 46.8135 45.1729C47.0408 46.0086 47.9555 46.778 48.749 46.6855C50.0709 46.5314 51.0995 45.4304 50.5156 43.873C50.4611 43.7614 50.4008 43.6959 50.3604 43.6201ZM42.8379 42.915C42.3705 42.8109 41.9702 42.6432 41.4951 42.7754C40.5475 43.0392 39.7867 44.0541 39.9668 44.8789C40.2458 46.1563 41.1175 46.8526 42.373 46.5928C43.3388 46.3927 44.0991 45.5376 43.8516 44.2646C43.7342 43.6611 43.3737 43.2491 42.8379 42.915ZM36.9717 43.8838C36.5944 42.9663 35.545 42.5288 34.4404 42.8857C33.4662 43.1731 32.9489 44.5041 33.3574 45.457C33.7691 46.4167 34.9662 46.8656 35.834 46.54C36.8521 46.158 37.4336 45.0077 36.9717 43.8838Z" fill="white"/>
</svg>
