<svg width="85" height="85" viewBox="0 0 85 85" fill="none" xmlns="http://www.w3.org/2000/svg">
<rect x="1.25" y="1.25" width="82.5" height="82.5" rx="41.25" fill="#2A2A2A"/>
<rect x="1.25" y="1.25" width="82.5" height="82.5" rx="41.25" stroke="white" stroke-width="2.5"/>
<path d="M22.0007 47.6821C22 46.6731 22 45.7267 22 44.7305C35.3065 44.7305 48.5844 44.7305 62 44.7305C61.9431 46.0283 61.8859 47.3317 61.8288 48.6351C61.7568 50.2775 61.2762 51.8134 60.6331 53.3116C59.9965 54.7948 59.1354 56.1294 58.0818 57.3492C56.6455 59.0121 54.9433 60.3296 52.962 61.2696C51.436 61.9935 49.8422 62.5978 48.1445 62.6524C44.7827 62.7603 41.417 62.7442 38.0536 62.8085C35.5345 62.8566 33.1475 62.3092 30.9004 61.2123C28.1404 59.865 25.9941 57.8261 24.398 55.1986C23.2395 53.2914 22.5649 51.2126 22.1457 49.0398C22.0637 48.6147 22.0478 48.1768 22.0007 47.6821Z" fill="white"/>
<path d="M30.6177 39.8316C31.5664 38.4624 32.8665 37.7672 34.4344 37.5414C34.9929 37.461 35.5668 37.4808 36.1221 37.3867C36.3491 37.3482 36.6116 37.1754 36.7453 36.9847C37.8371 35.4269 39.3907 34.839 41.2165 34.7531C42.6145 34.6873 43.9275 34.9095 45.1308 35.6731C45.548 35.9379 45.8032 36.5297 46.4615 36.3491C46.8133 36.2525 47.1778 36.199 47.5389 36.1402C49.3443 35.8463 52.2527 36.5662 53.3106 38.3601C53.4493 38.5953 53.5469 38.8632 53.6182 39.1281C53.7966 39.7908 54.192 40.0454 54.8939 40.0662C56.503 40.1137 57.9702 40.5855 59.0564 41.8643C59.3369 42.1945 59.5383 42.5918 59.842 43.0599C48.5673 43.0599 37.4711 43.0599 26.2817 43.0599C26.9899 42.5721 27.7057 42.3585 28.4806 42.2956C28.8684 42.2641 29.2979 42.2946 29.6265 42.1316C29.8835 42.0041 30.0744 41.6445 30.1869 41.3473C30.3666 40.8726 30.4568 40.364 30.6177 39.8316Z" fill="white"/>
<path d="M43.0313 66.507C40.4113 66.507 37.8567 66.474 35.3036 66.5196C33.8284 66.546 32.7815 66.0467 32.9765 64.1349C32.9875 64.0276 32.9779 63.9182 32.9779 63.9139C39.0137 64.6236 45.0135 64.8283 51.031 63.8516C51.3486 65.28 50.7538 66.6222 48.8428 66.5277C46.932 66.4332 45.0129 66.507 43.0313 66.507Z" fill="white"/>
<path d="M35.0715 26.3645C34.6302 25.6636 34.141 25.0453 33.8037 24.353C32.9511 22.6034 33.4008 20.7304 34.5778 19.3407C34.9029 18.9569 35.7483 18.8879 36.0818 19.182C36.4176 19.4781 36.4836 20.1584 36.1534 20.5242C34.9211 21.8891 35.0836 23.2248 36.2391 24.6113C37.4927 26.1156 37.4755 28.4112 36.3412 29.9601C36.1244 30.2561 35.6087 30.4868 35.2441 30.4696C34.9817 30.4572 34.6046 30.0154 34.5306 29.7051C34.4623 29.4184 34.6864 29.0276 34.8569 28.7251C35.2769 27.9801 35.3624 27.2196 35.0715 26.3645Z" fill="white"/>
<path d="M41.9725 27.695C42.0661 26.7561 41.7037 26.0822 41.1685 25.3862C39.6664 23.433 39.7981 21.2314 41.29 19.3752C41.6053 18.983 42.4214 18.8783 42.7856 19.1565C43.1251 19.4159 43.1984 20.1843 42.886 20.5427C41.6795 21.9274 41.7514 23.1191 42.9206 24.5181C44.2093 26.06 44.2131 28.3978 43.1154 29.9191C42.897 30.2217 42.405 30.471 42.0377 30.4729C41.7808 30.4743 41.4217 30.0536 41.2958 29.7449C41.2013 29.5134 41.3788 29.1504 41.4834 28.8635C41.6216 28.4844 41.807 28.1225 41.9725 27.695Z" fill="white"/>
<path d="M48.5476 19.0372C49.0221 19.0313 49.4898 18.9033 49.7267 19.4338C49.9704 19.9796 49.7393 20.3547 49.4103 20.8111C48.5838 21.9577 48.3848 22.9425 49.6809 24.5376C50.9951 26.1549 50.9431 28.3458 49.849 29.9385C49.6422 30.2395 49.1302 30.4789 48.7641 30.4722C48.5049 30.4674 48.1371 30.038 48.0359 29.7271C47.9517 29.4684 48.1231 29.0687 48.2884 28.7965C48.9628 27.6864 48.8467 26.5178 48.0127 25.5063C46.4044 23.5554 46.5301 21.1944 48.0708 19.3448C48.177 19.2174 48.3522 19.1476 48.5476 19.0372Z" fill="white"/>
</svg>
