<svg width="42" height="30" viewBox="0 0 42 30" fill="none" xmlns="http://www.w3.org/2000/svg">
<path d="M3.49381 0.593029L0.114335 7.33886C-0.187521 7.94257 0.134005 8.66438 0.777106 8.84813L13.7635 12.5557C14.2294 12.687 14.7281 12.4899 14.9775 12.0767L21.0015 2.1023L4.58312 0.00898337C4.13033 -0.0435166 3.69723 0.186084 3.49381 0.593029ZM41.8886 7.33886L38.5091 0.593029C38.3057 0.186189 37.866 -0.0500616 37.4132 0.00898337L21.0015 2.1023L27.0189 12.0832C27.2682 12.4966 27.767 12.6935 28.2329 12.5623L41.2192 8.85467C41.8689 8.66427 42.1839 7.94257 41.8886 7.33886ZM27.9376 14.7015C26.8286 14.7015 25.7852 14.1109 25.2209 13.166L21.0015 6.1708L16.7886 13.166C16.2177 14.1175 15.1743 14.7081 14.0653 14.7081C13.77 14.7081 13.4747 14.6689 13.1926 14.5835L4.20252 12.0111V23.6916C4.20252 24.6563 4.85872 25.4962 5.79054 25.7259L19.9778 29.276C20.6471 29.4401 21.3492 29.4401 22.012 29.276L36.2124 25.7259C37.1442 25.4896 37.8004 24.6497 37.8004 23.6916V12.0111L28.8103 14.5769C28.5282 14.6623 28.2329 14.7015 27.9376 14.7015Z" fill="white"/>
</svg>
