<svg width="85" height="85" viewBox="0 0 85 85" fill="none" xmlns="http://www.w3.org/2000/svg">
<rect x="1.25" y="1.25" width="82.5" height="82.5" rx="41.25" fill="#2A2A2A"/>
<rect x="1.25" y="1.25" width="82.5" height="82.5" rx="41.25" stroke="white" stroke-width="2.5"/>
<path d="M54.4802 25H28.5891C27.1593 25 26 26.1373 26 27.5399V59.296C26 61.4534 28.4843 62.6638 30.184 61.3349L39.9281 54.2227C40.3832 53.8669 40.9442 53.6735 41.5218 53.6732C42.0995 53.673 42.6606 53.8659 43.116 54.2214L52.8866 61.3421C54.587 62.669 57.0693 61.4579 57.0693 59.3012V27.5399C57.0693 26.1373 55.9101 25 54.4802 25ZM48.4761 38.2563L46.1038 40.6298C45.9875 40.7471 45.9007 40.8904 45.8509 41.0479C45.801 41.2054 45.7894 41.3725 45.8171 41.5354L46.377 44.8863C46.5168 45.722 45.6624 46.3589 44.9309 45.9647L41.9988 44.3827C41.8563 44.3056 41.6969 44.2653 41.535 44.2653C41.373 44.2653 41.2136 44.3056 41.0712 44.3827L38.139 45.9647C37.4076 46.3589 36.5532 45.722 36.693 44.8863L37.2529 41.5354C37.2806 41.3725 37.269 41.2054 37.2191 41.0479C37.1692 40.8904 37.0825 40.7471 36.9662 40.6298L34.5939 38.2563C34.0023 37.6646 34.3285 36.6335 35.146 36.5118L38.4245 36.0231C38.5858 35.9983 38.7386 35.9343 38.8694 35.8367C39.0002 35.739 39.105 35.6108 39.1747 35.4632L40.6408 32.4146C40.72 32.2442 40.8462 32.1001 41.0045 31.9991C41.1629 31.8981 41.3468 31.8444 41.5347 31.8444C41.7225 31.8444 41.9064 31.8981 42.0648 31.9991C42.2232 32.1001 42.3494 32.2442 42.4286 32.4146L43.8946 35.4632C44.0396 35.7649 44.3206 35.9746 44.6448 36.0231L47.9233 36.5118C48.7408 36.6335 49.067 37.6646 48.4761 38.2563Z" fill="white"/>
</svg>
