<svg width="83" height="114" viewBox="0 0 83 114" fill="none" xmlns="http://www.w3.org/2000/svg">
<path d="M70.1914 108.73C70.0366 108.803 69.8783 108.876 69.7208 108.949C69.5539 109.026 69.387 109.099 69.2175 109.172C65.4011 110.868 61.3868 112.142 57.2314 112.961C54.3613 113.529 51.4233 113.88 48.4414 114L53.4158 111.141L53.8838 110.868C55.2156 110.116 56.5319 109.353 57.8078 108.504C66.2003 102.89 67.2594 92.7412 59.2592 86.6053C51.5403 80.6888 42.6797 76.2848 34.7647 70.5937C25.8396 64.1851 16.6169 57.8616 8.99693 50.0696C5.45925 46.4528 2.85846 42.3473 1.38643 37.8821C-0.434028 32.3545 -0.524373 26.2771 1.4888 19.8857C2.86705 15.5144 5.32503 12.1608 8.38006 9.42238C8.49707 9.32 8.61406 9.2202 8.73107 9.11781C9.01498 8.8666 9.30406 8.62655 9.59657 8.39254C9.65249 8.34264 9.71099 8.29533 9.76949 8.25145C12.6198 5.97845 15.8821 4.14338 19.2211 2.45799C20.5081 1.81102 21.8193 1.20879 23.1477 0.640968C23.1511 0.640968 23.1511 0.640976 23.1537 0.637527C23.5546 0.462021 23.9581 0.292534 24.365 0.125633C24.371 0.123055 24.3736 0.123039 24.3796 0.120461C24.4854 0.0791626 24.5904 0.0378571 24.6988 0C20.4763 4.81097 17.9186 11.1164 17.9186 18.0197C17.9186 21.2382 18.4752 24.325 19.499 27.1899C20.4703 30.5435 22.4284 33.8085 25.4155 36.8575C25.8456 37.2962 26.2964 37.7299 26.7679 38.154C26.8815 38.2624 26.9959 38.3648 27.1103 38.4646C27.2359 38.5781 27.3641 38.6891 27.4932 38.801C27.6162 38.9059 27.7392 39.0118 27.8649 39.1141C33.0733 43.5173 38.8349 47.3071 44.7721 50.8594C45.0353 51.0177 45.302 51.1751 45.5679 51.3334C49.5564 53.7011 53.6146 55.9655 57.6237 58.2453C66.911 63.5295 75.8042 68.9134 80.4156 79.0963C85.7677 90.9009 81.5917 103.243 70.1914 108.73Z" fill="white"/>
<path d="M60.8634 24.4559C60.8634 28.5459 59.2046 32.2505 56.5238 34.9339C53.8405 37.6147 50.1359 39.2734 46.0459 39.2734C37.8607 39.2734 31.2275 32.6403 31.2275 24.4559C31.2275 20.365 32.8863 16.6605 35.5671 13.9771C38.2504 11.2963 41.955 9.63757 46.0459 9.63757C50.1359 9.63757 53.8405 11.2963 56.5238 13.9771C59.2046 16.6605 60.8634 20.365 60.8634 24.4559Z" fill="white"/>
</svg>
