<svg width="18" height="19" viewBox="0 0 18 19" fill="none" xmlns="http://www.w3.org/2000/svg">
<path d="M3.25356 12.275C3.36775 11.3295 3.7555 10.8002 4.48618 10.2576C5.53171 9.52271 6.83766 9.9384 6.83766 9.9384V7.47228C7.15521 7.4641 7.47284 7.48295 7.78681 7.52847V10.7022C7.78681 10.7022 6.48123 10.2865 5.43577 11.0218C4.70546 11.564 4.31691 12.0938 4.20312 13.0392C4.19955 13.5526 4.29589 14.2236 4.73958 14.8038C4.62983 14.7476 4.51804 14.6835 4.40413 14.6116C3.42682 13.9553 3.24881 12.9708 3.25356 12.275ZM13.1793 2.91231C12.4601 2.12421 12.1881 1.3285 12.0898 0.769531H12.9945C12.9945 0.769531 12.8141 2.23517 14.1288 3.67649L14.1471 3.69587C13.7927 3.47298 13.4678 3.20989 13.1793 2.91231ZM17.5377 5.14667V8.25652C17.5377 8.25652 16.3832 8.21136 15.5288 7.99399C14.3357 7.68995 13.569 7.2237 13.569 7.2237C13.569 7.2237 13.0393 6.89125 12.9965 6.86808V13.29C12.9965 13.6475 12.8986 14.5405 12.6 15.2853C12.2103 16.2597 11.6088 16.8991 11.4982 17.0299C11.4982 17.0299 10.7667 17.8943 9.47621 18.4765C8.31297 19.0017 7.29163 18.9884 6.98635 19.0017C6.98635 19.0017 5.22088 19.0716 3.6322 18.0392C3.28866 17.8115 2.96798 17.5538 2.67432 17.2692L2.68225 17.2749C4.27131 18.3074 6.03639 18.2375 6.03639 18.2375C6.34211 18.2242 7.36338 18.2375 8.52626 17.7123C9.81561 17.1302 10.5483 16.2657 10.5483 16.2657C10.6577 16.135 11.2619 15.4954 11.6501 14.5208C11.9478 13.7764 12.0465 12.883 12.0465 12.5254V6.1043C12.0893 6.12783 12.6186 6.46029 12.6186 6.46029C12.6186 6.46029 13.3859 6.92698 14.5788 7.23057C15.4336 7.44795 16.5878 7.49318 16.5878 7.49318V5.05625C16.9826 5.14477 17.3193 5.16874 17.5377 5.14667Z" fill="#EE1D52"/>
<path d="M16.5868 5.05625V7.49237C16.5868 7.49237 15.4326 7.44715 14.5778 7.22984C13.3848 6.92581 12.6176 6.45956 12.6176 6.45956C12.6176 6.45956 12.0883 6.1271 12.0455 6.1035V12.5262C12.0455 12.8838 11.9476 13.7771 11.649 14.5215C11.2593 15.4962 10.6579 16.1357 10.5472 16.2664C10.5472 16.2664 9.8154 17.1309 8.52523 17.7131C7.36236 18.2383 6.34109 18.225 6.03537 18.2383C6.03537 18.2383 4.27029 18.3082 2.68122 17.2757L2.67329 17.27C2.50552 17.1075 2.3476 16.936 2.2003 16.7563C1.69321 16.138 1.38238 15.4069 1.30427 15.1983V15.1956C1.17859 14.8331 0.91454 13.9625 0.950621 13.1193C1.01445 11.6317 1.5378 10.7185 1.67616 10.4898C2.04262 9.86599 2.51925 9.30782 3.08483 8.84026C3.58393 8.43671 4.14963 8.11564 4.75873 7.89023C5.41721 7.62558 6.12232 7.48368 6.83627 7.47228V9.9384C6.83627 9.9384 5.53025 9.52425 4.48516 10.2576C3.75447 10.8002 3.36672 11.3295 3.25254 12.275C3.24778 12.9708 3.4258 13.9553 4.4023 14.612C4.51621 14.6842 4.62801 14.7482 4.73776 14.8042C4.9083 15.026 5.11596 15.2192 5.35226 15.3761C6.30616 15.9799 7.10545 16.0221 8.1276 15.63C8.8091 15.3678 9.32211 14.7769 9.56002 14.1221C9.70952 13.7133 9.70755 13.3017 9.70755 12.8762V0.769531H12.0863C12.1847 1.3285 12.4567 2.12421 13.1759 2.91231C13.4643 3.20989 13.7893 3.47298 14.1437 3.69587C14.2484 3.80416 14.7836 4.33957 15.4706 4.66827C15.8259 4.83817 16.2004 4.96835 16.5868 5.05625Z" fill="white"/>
<path d="M0.358398 14.4375V14.4394L0.417423 14.5994C0.410642 14.5808 0.388707 14.5242 0.358398 14.4375Z" fill="#69C9D0"/>
<path d="M4.75877 7.88553C4.14967 8.11102 3.58397 8.43208 3.08487 8.83556C2.51911 9.30422 2.0426 9.86356 1.6766 10.4885C1.53824 10.7166 1.01489 11.6304 0.951062 13.1181C0.914981 13.9613 1.17903 14.8319 1.30471 15.1944V15.197C1.384 15.4038 1.69365 16.1348 2.20074 16.755C2.34804 16.9348 2.50596 17.1063 2.67373 17.2688C2.13619 16.9124 1.65679 16.4817 1.25119 15.9905C0.748459 15.3776 0.438417 14.654 0.357538 14.4405C0.357443 14.4389 0.357443 14.4374 0.357538 14.4359V14.4332C0.231459 14.0711 -0.033383 13.2001 0.00348709 12.3558C0.0673193 10.8682 0.590668 9.95504 0.729037 9.72626C1.09493 9.10117 1.57145 8.54183 2.13731 8.07332C2.63629 7.66962 3.20202 7.34856 3.81121 7.12329C4.19119 6.97218 4.58706 6.86076 4.99193 6.79083C5.60205 6.68875 6.22525 6.67984 6.83829 6.7646V7.46759C6.12368 7.47876 5.41784 7.62066 4.75877 7.88553Z" fill="#69C9D0"/>
<path d="M12.0895 0.764547H9.71058V12.8716C9.71058 13.2971 9.71058 13.7076 9.56313 14.1175C9.32288 14.7719 8.81177 15.3628 8.13063 15.625C7.10819 16.0187 6.3089 15.975 5.35537 15.3712C5.11863 15.2149 4.91046 15.0223 4.73926 14.8012C5.55163 15.2165 6.27873 15.2092 7.17951 14.8628C7.86028 14.6005 8.37212 14.0096 8.61157 13.3549C8.76143 12.946 8.75946 12.5345 8.75946 12.1093V0H12.0442C12.0442 0 12.0074 0.300952 12.0895 0.764547ZM16.5878 4.37753V5.05126C16.2022 4.96324 15.8284 4.83306 15.4737 4.66329C14.7867 4.3346 14.2514 3.79918 14.1468 3.69088C14.2682 3.76731 14.3942 3.83684 14.5242 3.89912C15.3595 4.29887 16.1822 4.41819 16.5878 4.37753Z" fill="#69C9D0"/>
</svg>
