<svg width="85" height="85" viewBox="0 0 85 85" fill="none" xmlns="http://www.w3.org/2000/svg">
<rect x="1.25" y="1.25" width="82.5" height="82.5" rx="41.25" fill="#2A2A2A"/>
<rect x="1.25" y="1.25" width="82.5" height="82.5" rx="41.25" stroke="white" stroke-width="2.5"/>
<path d="M25.7472 44.5436C25.2153 44.2194 25.0003 43.7798 25.0015 43.1789C25.0133 37.3644 25.0141 31.5499 25 25.7355C24.9986 25.1507 25.181 24.6607 25.6658 24.405C26.1736 24.137 26.7279 24.1964 27.237 24.5522C29.3914 26.0581 31.5531 27.5534 33.7169 29.0458C35.7865 30.4733 37.8612 31.8936 39.9353 33.3148C40.7352 33.8629 40.7261 35.0489 39.9208 35.5988C37.7776 37.0623 35.6338 38.5248 33.4975 39.9983C31.4137 41.4357 29.3355 42.8814 27.2625 44.3344C26.7956 44.6617 26.3176 44.7434 25.7472 44.5436Z" fill="white"/>
<path d="M32.3394 57.7344C31.442 58.8184 30.5643 59.8723 29.6872 60.9266C29.4162 61.2524 29.1654 61.5976 28.8723 61.9021C28.3755 62.4184 27.4385 62.4665 26.9884 61.9643C26.5035 61.4233 26.4116 60.7131 26.9125 60.0955C28.3603 58.3103 29.8078 56.5248 31.2665 54.7485C32.8507 52.8192 34.4504 50.9027 36.0375 48.9758C37.2295 47.5285 38.4157 46.0763 39.5983 44.6213C41.2974 42.531 42.9832 40.43 44.6889 38.3451C46.2696 36.413 47.877 34.5028 49.4578 32.5708C50.8507 30.8685 52.2198 29.1467 53.6058 27.4387C54.3767 26.4888 55.1641 25.5521 55.9375 24.6042C56.3665 24.0785 57.005 23.8562 57.5777 24.0968C58.145 24.3353 58.4804 24.8288 58.3938 25.4865C58.3563 25.7711 58.1902 26.0678 58.0072 26.2994C56.9159 27.6797 55.809 29.0479 54.6947 30.4098C53.7128 31.6099 52.7081 32.7912 51.7252 33.9905C50.92 34.973 50.1378 35.9742 49.3352 36.9588C48.531 37.9455 47.7094 38.918 46.9042 39.9038C45.9145 41.1154 44.9402 42.3396 43.9474 43.5486C42.9635 44.7469 41.9564 45.9264 40.9749 47.1267C39.8715 48.4762 38.7926 49.8458 37.6894 51.1954C36.7081 52.3959 35.7018 53.576 34.7182 54.7746C33.9229 55.7438 33.1449 56.7273 32.3394 57.7344Z" fill="white"/>
<path d="M59.6274 46.3091C59.7694 46.6283 59.9824 46.9201 59.9838 47.2128C60.0049 51.7306 59.9999 56.2486 59.997 60.7665C59.9965 61.4831 59.4422 62.0344 58.725 62.0373C57.4342 62.0424 56.1423 62.0061 54.8529 62.0495C53.8969 62.0817 53.3385 61.5446 53.3385 60.5069C53.3385 56.866 53.3385 53.2252 53.3385 49.5844C53.3385 48.8397 53.3356 48.095 53.3393 47.3503C53.3438 46.4339 53.8456 45.9355 54.7562 45.9354C56.0801 45.9354 57.4046 45.9151 58.7276 45.9512C59.0212 45.9592 59.3093 46.1666 59.6274 46.3091Z" fill="white"/>
<path d="M47.2769 45.938C48.2533 45.938 49.18 45.9366 50.1067 45.9385C50.8948 45.9402 51.3515 46.3941 51.3517 47.1804C51.3528 51.7147 51.3526 56.2489 51.3518 60.7832C51.3517 61.553 50.8735 62.0396 50.1154 62.0408C48.775 62.0428 47.4346 62.0442 46.0941 62.0403C45.2899 62.0379 44.7918 61.5301 44.7918 60.7241C44.7915 56.2229 44.7913 51.7217 44.7919 47.2206C44.792 46.3591 45.2167 45.9396 46.0854 45.9382C46.466 45.9375 46.8467 45.938 47.2769 45.938Z" fill="white"/>
</svg>
