<svg width="351" height="35" viewBox="0 0 351 35" fill="none" xmlns="http://www.w3.org/2000/svg">
<path d="M44.0824 8.81185C49.6108 8.59659 54.0424 10.6416 56.6658 14.9737C58.6519 18.2834 60.89 18.8485 64.5954 17.6376C74.1108 14.5298 83.6706 11.5295 93.2898 8.73113C99.248 6.99558 104.584 7.92388 108.956 12.5386C110.008 13.6418 112.573 14.3683 114.188 14.0723C122.488 12.5386 130.714 10.6012 138.97 8.82528C148.248 6.8341 157.497 4.66805 166.849 2.97286C172.615 1.92345 178.069 3.98188 181.611 7.8297C186.769 13.4131 193.083 13.144 199.456 11.8524C211.477 9.43071 223.289 6.2287 235.28 3.68591C241.416 2.39434 247.73 1.43908 254.014 1.12964C256.89 0.981643 260.239 2.27322 262.744 3.78006C268.05 6.95518 273.92 6.72647 279.507 6.17486C294.996 4.64111 310.484 2.90559 325.795 0.362794C334.199 -1.03641 341.031 1.88306 348.131 4.49312C349.539 5.01782 351.377 7.85662 350.932 8.63695C349.88 10.4801 347.805 12.2695 345.671 13.0498C343.862 13.7225 341.195 13.4265 339.268 12.7538C329.263 9.24237 319.57 12.5251 309.788 13.5611C297.753 14.8258 285.777 16.5478 273.727 17.53C270.096 17.826 265.546 17.3013 262.729 15.4715C255.022 10.4667 247.241 12.1215 239.311 13.8301C226.639 16.5613 214.026 19.4808 201.383 22.3061C190.964 24.6337 181.819 22.9519 173.934 15.8213C172.244 14.2876 168.479 13.4131 166.108 13.9243C154.681 16.3326 143.387 19.2924 132.048 22.0909C124.415 23.961 116.93 27.0284 108.778 24.23C107.77 23.8802 106.54 23.7188 105.799 23.0999C97.8548 16.4268 90.1032 20.0593 82.2181 23.2345C76.7638 25.4274 71.2798 27.6204 65.6032 29.2214C58.4741 31.2395 53.0494 28.7371 47.8174 21.916C45.9795 19.5077 44.364 18.5256 41.1922 19.1041C31.8991 20.7724 23.851 24.7413 16.6033 30.0556C10.0373 34.8855 5.01281 35.8407 0.833143 32.0333C-0.115434 31.1722 -0.308087 28.0778 0.53674 27.3782C10.5116 19.0234 29.3646 9.51143 44.112 8.82528L44.0824 8.81185Z" fill="#FE7E39" fill-opacity="0.37"/>
</svg>
